<mxfile host="app.diagrams.net" modified="2023-10-08T18:22:24.562Z" agent="Mozilla/5.0 (Windows NT 10.0; Win64; x64) AppleWebKit/537.36 (KHTML, like Gecko) Chrome/117.0.0.0 Safari/537.36" etag="8VaUoX0lMYibGuKJn7lY" version="22.0.4" type="device">
  <diagram name="Página-1" id="bvKESvDUoGpy6fbLDpAN">
    <mxGraphModel dx="1647" dy="853" grid="1" gridSize="10" guides="1" tooltips="1" connect="1" arrows="1" fold="1" page="1" pageScale="1" pageWidth="827" pageHeight="1169" math="0" shadow="0">
      <root>
        <mxCell id="0" />
        <mxCell id="1" parent="0" />
        <mxCell id="UJOlOVOtn48DZyF77qP5-1" value="" style="whiteSpace=wrap;html=1;aspect=fixed;fillColor=#fff2cc;strokeColor=#d6b656;" vertex="1" parent="1">
          <mxGeometry x="113" y="170" width="530" height="530" as="geometry" />
        </mxCell>
        <mxCell id="UJOlOVOtn48DZyF77qP5-2" value="" style="rounded=0;whiteSpace=wrap;html=1;fillColor=#d5e8d4;strokeColor=#82b366;" vertex="1" parent="1">
          <mxGeometry x="113" y="170" width="530" height="100" as="geometry" />
        </mxCell>
        <mxCell id="UJOlOVOtn48DZyF77qP5-3" value="&lt;font style=&quot;font-size: 10px;&quot;&gt;FOTO DO AUTOR&lt;/font&gt;" style="ellipse;whiteSpace=wrap;html=1;aspect=fixed;fillColor=#f5f5f5;fontColor=#333333;strokeColor=#666666;" vertex="1" parent="1">
          <mxGeometry x="213" y="180" width="80" height="80" as="geometry" />
        </mxCell>
        <mxCell id="UJOlOVOtn48DZyF77qP5-4" value="" style="rounded=0;whiteSpace=wrap;html=1;fillColor=#dae8fc;strokeColor=#6c8ebf;" vertex="1" parent="1">
          <mxGeometry x="113" y="270" width="530" height="90" as="geometry" />
        </mxCell>
        <mxCell id="UJOlOVOtn48DZyF77qP5-5" value="Nome do autor" style="text;html=1;strokeColor=none;fillColor=none;align=center;verticalAlign=middle;whiteSpace=wrap;rounded=0;fontSize=22;fontStyle=1" vertex="1" parent="1">
          <mxGeometry x="373" y="205" width="190" height="30" as="geometry" />
        </mxCell>
        <mxCell id="UJOlOVOtn48DZyF77qP5-6" value="Tema" style="text;html=1;strokeColor=none;fillColor=none;align=center;verticalAlign=middle;whiteSpace=wrap;rounded=0;fontSize=21;fontStyle=1" vertex="1" parent="1">
          <mxGeometry x="348" y="300" width="60" height="30" as="geometry" />
        </mxCell>
        <mxCell id="UJOlOVOtn48DZyF77qP5-9" value="ILUSTRAÇÃO 1" style="whiteSpace=wrap;html=1;aspect=fixed;fillColor=#f5f5f5;fontColor=#333333;strokeColor=#666666;fontSize=10;" vertex="1" parent="1">
          <mxGeometry x="123" y="395" width="80" height="80" as="geometry" />
        </mxCell>
        <mxCell id="UJOlOVOtn48DZyF77qP5-10" value="&lt;font style=&quot;font-size: 10px;&quot;&gt;ILUSTRAÇÃO 2&lt;/font&gt;" style="whiteSpace=wrap;html=1;aspect=fixed;fillColor=#f5f5f5;fontColor=#333333;strokeColor=#666666;" vertex="1" parent="1">
          <mxGeometry x="123" y="530" width="80" height="80" as="geometry" />
        </mxCell>
        <mxCell id="UJOlOVOtn48DZyF77qP5-11" value="" style="rounded=0;whiteSpace=wrap;html=1;fillColor=#ffe6cc;strokeColor=#d79b00;" vertex="1" parent="1">
          <mxGeometry x="113" y="640" width="530" height="60" as="geometry" />
        </mxCell>
        <mxCell id="UJOlOVOtn48DZyF77qP5-12" value="&lt;h1 style=&quot;&quot;&gt;&lt;font style=&quot;font-size: 18px;&quot;&gt;Texto 1&lt;/font&gt;&lt;/h1&gt;Lorem ipsum dolor sit amet, consectetur adipisicing elit, sed do eiusmod tempor incididunt ut labore et dolore magna aliqua.Lorem ipsum dolor sit amet, consectetur adipisicing elit, sed do eiusmod tempor incididunt ut labore et dolore magna aliqua.&lt;p&gt;Lorem ipsum dolor sit amet, consectetur adipisicing elit, sed do eiusmod tempor incididunt ut labore et dolore magna aliqua.&lt;br&gt;&lt;/p&gt;" style="text;html=1;strokeColor=none;fillColor=none;spacing=5;spacingTop=-20;whiteSpace=wrap;overflow=hidden;rounded=0;" vertex="1" parent="1">
          <mxGeometry x="223" y="360" width="420" height="135" as="geometry" />
        </mxCell>
        <mxCell id="UJOlOVOtn48DZyF77qP5-13" value="&lt;h1 style=&quot;&quot;&gt;&lt;/h1&gt;&lt;h1 style=&quot;border-color: var(--border-color);&quot;&gt;&lt;font style=&quot;border-color: var(--border-color); font-size: 18px;&quot;&gt;Texto&amp;nbsp;&lt;/font&gt;&lt;/h1&gt;Lorem ipsum dolor sit amet, consectetur adipisicing elit, sed do eiusmod tempor incididunt ut labore et dolore magna aliqua.Lorem ipsum dolor sit amet, consectetur adipisicing elit, sed do eiusmod tempor incididunt ut labore et dolore magna aliqua." style="text;html=1;strokeColor=none;fillColor=none;spacing=5;spacingTop=-20;whiteSpace=wrap;overflow=hidden;rounded=0;" vertex="1" parent="1">
          <mxGeometry x="223" y="505" width="420" height="135" as="geometry" />
        </mxCell>
        <mxCell id="UJOlOVOtn48DZyF77qP5-14" value="CONTATOS" style="text;html=1;strokeColor=none;fillColor=none;align=center;verticalAlign=middle;whiteSpace=wrap;rounded=0;fontStyle=1;fontSize=13;" vertex="1" parent="1">
          <mxGeometry x="333" y="640" width="60" height="30" as="geometry" />
        </mxCell>
        <mxCell id="UJOlOVOtn48DZyF77qP5-15" value="HIPERLINK 1" style="text;html=1;strokeColor=none;fillColor=none;align=center;verticalAlign=middle;whiteSpace=wrap;rounded=0;fontStyle=0;fontSize=10;" vertex="1" parent="1">
          <mxGeometry x="318" y="655" width="90" height="30" as="geometry" />
        </mxCell>
        <mxCell id="UJOlOVOtn48DZyF77qP5-17" value="HIPERLINK 2" style="text;html=1;strokeColor=none;fillColor=none;align=center;verticalAlign=middle;whiteSpace=wrap;rounded=0;fontStyle=0;fontSize=10;" vertex="1" parent="1">
          <mxGeometry x="318" y="670" width="90" height="30" as="geometry" />
        </mxCell>
      </root>
    </mxGraphModel>
  </diagram>
</mxfile>
